<svg width="223" height="120" viewBox="0 0 223 120" fill="none" xmlns="http://www.w3.org/2000/svg">
<path d="M221.024 26.168C219.978 17.9587 216.494 12.3296 212.371 8.45948C209.874 5.8208 207.261 4.23759 205.055 3.41666C199.306 0.543427 194.254 0.0743294 194.254 0.0743294C185.718 -0.86387 183.86 7.40401 183.86 7.40401C181.828 12.9159 184.905 29.9208 184.905 29.9208H184.963C185.137 32.3836 185.428 35.2568 185.892 38.4818C185.892 38.4818 193.383 83.6913 172.072 83.8672C172.072 83.8672 156.394 88.9687 148.961 47.3361C146.116 40.4755 144.025 46.1047 144.025 46.1047C143.503 49.2711 138.044 63.1096 138.044 63.1096C127.127 92.956 115.049 86.33 115.049 86.33C108.952 83.8086 109.649 65.2205 109.649 65.2205C110.113 49.3298 108.604 39.8305 108.604 39.8305C103.436 4.06167 80.4406 2.77165 80.4406 2.77165C54.368 0.308879 38.8638 35.2568 36.3669 41.2964C36.3088 40.886 36.3088 40.6514 36.3088 40.6514C34.1022 9.86679 18.3077 12.8573 18.3077 12.8573C-1.60967 12.6814 1.00339 34.084 1.00339 34.084L2.57123 77.2998C4.081 108.554 20.3982 117.232 20.3982 117.232C39.9671 126.555 39.5026 103.511 39.5026 103.511C39.6187 102.103 39.6187 100.11 39.6187 97.647L39.6768 97.9402C39.6768 97.7057 39.6187 97.4711 39.6187 97.2366C39.5606 95.1256 39.5026 92.7801 39.3864 90.1414C39.4445 84.2777 39.9671 79.3521 40.4317 76.3616C46.4127 39.8891 58.4328 32.2663 58.4328 32.2663C79.2212 18.3106 76.3178 61.4091 76.3178 61.4091C76.3178 72.257 76.492 81.2872 76.492 81.2872C79.8599 124.327 106.397 119.05 106.397 119.05C125.211 119.05 135.838 101.224 141.761 83.3981C143.619 93.5424 151.168 119.695 180.144 119.226C180.144 119.226 214.578 122.451 221.953 53.0826C223.114 41.9415 222.533 33.1458 221.024 26.168Z" fill="white"/>
</svg>
