<svg width="28" height="28" viewBox="0 0 28 28" fill="none" xmlns="http://www.w3.org/2000/svg">
<path d="M15.3117 0.363525C16.8458 0.367616 17.6244 0.375798 18.2967 0.394889L18.5612 0.404434C18.8667 0.415344 19.168 0.42898 19.5321 0.445343C20.983 0.513525 21.973 0.742616 22.8417 1.07943C23.7417 1.4258 24.4999 1.89489 25.258 2.65171C25.9514 3.33338 26.488 4.15796 26.8303 5.06807C27.1671 5.93671 27.3962 6.92671 27.4644 8.37898C27.4808 8.74171 27.4944 9.04307 27.5053 9.34989L27.5135 9.61444C27.5339 10.2853 27.5421 11.064 27.5449 12.5981L27.5462 13.6153V15.4017C27.5496 16.3963 27.5391 17.391 27.5149 18.3853L27.5067 18.6499C27.4958 18.9567 27.4821 19.2581 27.4658 19.6208C27.3976 21.0731 27.1658 22.0617 26.8303 22.9317C26.489 23.8423 25.9523 24.6671 25.258 25.3481C24.5762 26.0412 23.7516 26.5777 22.8417 26.9203C21.973 27.2572 20.983 27.4863 19.5321 27.5544C19.2086 27.5697 18.8849 27.5833 18.5612 27.5953L18.2967 27.6035C17.6244 27.6226 16.8458 27.6322 15.3117 27.6349L14.2944 27.6363H12.5094C11.5143 27.6397 10.5192 27.6292 9.5244 27.6049L9.25986 27.5967C8.93614 27.5844 8.6125 27.5704 8.28895 27.5544C6.83804 27.4863 5.84804 27.2572 4.97804 26.9203C4.06804 26.5786 3.24379 26.042 2.56304 25.3481C1.86901 24.6666 1.33198 23.842 0.989401 22.9317C0.652583 22.0631 0.423492 21.0731 0.35531 19.6208C0.340117 19.2972 0.326481 18.9736 0.314401 18.6499L0.307583 18.3853C0.282454 17.391 0.271089 16.3964 0.273492 15.4017V12.5981C0.269686 11.6034 0.279687 10.6088 0.303492 9.61444L0.313037 9.34989C0.323947 9.04307 0.337583 8.74171 0.353946 8.37898C0.422128 6.92671 0.651219 5.93807 0.988037 5.06807C1.33047 4.15703 1.86857 3.33219 2.5644 2.65171C3.24498 1.95826 4.06869 1.42169 4.97804 1.07943C5.84804 0.742616 6.83667 0.513525 8.28895 0.445343C8.65167 0.42898 8.9544 0.415344 9.25986 0.404434L9.5244 0.396253C10.5188 0.372025 11.5134 0.361569 12.508 0.364889L15.3117 0.363525ZM13.9099 7.18171C12.1016 7.18171 10.3673 7.90005 9.08867 9.17871C7.81002 10.4574 7.09167 12.1916 7.09167 13.9999C7.09167 15.8082 7.81002 17.5424 9.08867 18.8211C10.3673 20.0997 12.1016 20.8181 13.9099 20.8181C15.7182 20.8181 17.4524 20.0997 18.731 18.8211C20.0097 17.5424 20.728 15.8082 20.728 13.9999C20.728 12.1916 20.0097 10.4574 18.731 9.17871C17.4524 7.90005 15.7182 7.18171 13.9099 7.18171ZM13.9099 9.90898C14.4471 9.90889 14.9791 10.0146 15.4754 10.2201C15.9718 10.4256 16.4228 10.7269 16.8028 11.1067C17.1827 11.4865 17.4841 11.9374 17.6898 12.4337C17.8955 12.93 18.0014 13.462 18.0014 13.9992C18.0015 14.5364 17.8958 15.0684 17.6903 15.5648C17.4848 16.0611 17.1835 16.5122 16.8037 16.8921C16.4239 17.2721 15.973 17.5735 15.4767 17.7791C14.9804 17.9848 14.4484 18.0907 13.9112 18.0908C12.8262 18.0908 11.7857 17.6598 11.0185 16.8926C10.2513 16.1254 9.82031 15.0849 9.82031 13.9999C9.82031 12.9149 10.2513 11.8744 11.0185 11.1072C11.7857 10.34 12.8262 9.90898 13.9112 9.90898M21.0703 5.13625C20.6182 5.13625 20.1847 5.31584 19.865 5.6355C19.5454 5.95517 19.3658 6.38872 19.3658 6.8408C19.3658 7.29287 19.5454 7.72643 19.865 8.04609C20.1847 8.36576 20.6182 8.54534 21.0703 8.54534C21.5224 8.54534 21.9559 8.36576 22.2756 8.04609C22.5953 7.72643 22.7749 7.29287 22.7749 6.8408C22.7749 6.38872 22.5953 5.95517 22.2756 5.6355C21.9559 5.31584 21.5224 5.13625 21.0703 5.13625Z" fill="black"/>
</svg>
