<svg width="28" height="28" viewBox="0 0 28 28" fill="none" xmlns="http://www.w3.org/2000/svg">
<path d="M24.7893 0.363525C25.593 0.363525 26.3638 0.682788 26.932 1.25108C27.5003 1.81937 27.8196 2.59014 27.8196 3.39383V24.6059C27.8196 25.4096 27.5003 26.1804 26.932 26.7487C26.3638 27.317 25.593 27.6363 24.7893 27.6363H3.57718C2.77349 27.6363 2.00272 27.317 1.43443 26.7487C0.866138 26.1804 0.546875 25.4096 0.546875 24.6059V3.39383C0.546875 2.59014 0.866138 1.81937 1.43443 1.25108C2.00272 0.682788 2.77349 0.363525 3.57718 0.363525H24.7893ZM24.0317 23.8484V15.8181C24.0317 14.5081 23.5113 13.2517 22.585 12.3254C21.6587 11.3991 20.4023 10.8787 19.0923 10.8787C17.8045 10.8787 16.3045 11.6666 15.5772 12.8484V11.1666H11.3499V23.8484H15.5772V16.3787C15.5772 15.212 16.5166 14.2575 17.6832 14.2575C18.2458 14.2575 18.7854 14.4809 19.1832 14.8788C19.581 15.2766 19.8045 15.8161 19.8045 16.3787V23.8484H24.0317ZM6.42566 8.78777C7.10076 8.78777 7.74821 8.51959 8.22557 8.04222C8.70294 7.56486 8.97112 6.91741 8.97112 6.24231C8.97112 4.83322 7.83475 3.68171 6.42566 3.68171C5.74655 3.68171 5.09525 3.95148 4.61504 4.43169C4.13483 4.9119 3.86506 5.5632 3.86506 6.24231C3.86506 7.6514 5.01657 8.78777 6.42566 8.78777ZM8.53172 23.8484V11.1666H4.33475V23.8484H8.53172Z" fill="black"/>
</svg>
