<svg width="54" height="54" viewBox="0 0 54 54" fill="none" xmlns="http://www.w3.org/2000/svg">
<mask id="mask0_51_309" style="mask-type:luminance" maskUnits="userSpaceOnUse" x="0" y="0" width="54" height="55">
<path d="M2 17.7896H52L46.4737 52.0001H7.52632L2 17.7896Z" fill="black"/>
<path d="M2 17.7896H52L46.4737 52.0001H7.52632L2 17.7896Z" fill="url(#paint0_linear_51_309)"/>
<path d="M2 17.7896H52L46.4737 52.0001H7.52632L2 17.7896Z" stroke="white" stroke-width="4" stroke-linecap="round" stroke-linejoin="round"/>
<path d="M41.4736 17.7895C41.4736 9.06974 34.9933 2 26.9999 2C19.0065 2 12.5262 9.06974 12.5262 17.7895" stroke="white" stroke-width="4" stroke-linecap="round" stroke-linejoin="round"/>
<path d="M17.7895 32.2632C19.2429 32.2632 20.4211 31.085 20.4211 29.6316C20.4211 28.1782 19.2429 27 17.7895 27C16.3362 27 15.158 28.1782 15.158 29.6316C15.158 31.085 16.3362 32.2632 17.7895 32.2632Z" fill="black"/>
<path d="M19.1052 38.842C19.1052 38.842 21.7368 42.7894 27 42.7894C32.2631 42.7894 34.8947 38.842 34.8947 38.842" fill="black"/>
<path d="M19.1052 38.842C19.1052 38.842 21.7368 42.7894 27 42.7894C32.2631 42.7894 34.8947 38.842 34.8947 38.842" fill="url(#paint1_linear_51_309)"/>
<path d="M19.1052 38.842C19.1052 38.842 21.7368 42.7894 27 42.7894C32.2631 42.7894 34.8947 38.842 34.8947 38.842" stroke="black" stroke-width="4" stroke-linecap="round" stroke-linejoin="round"/>
<path d="M36.2106 32.2632C37.6639 32.2632 38.8421 31.085 38.8421 29.6316C38.8421 28.1782 37.6639 27 36.2106 27C34.7572 27 33.579 28.1782 33.579 29.6316C33.579 31.085 34.7572 32.2632 36.2106 32.2632Z" fill="black"/>
</mask>
<g mask="url(#mask0_51_309)">
<path d="M-4.57898 -4.57898H58.5789V58.5789H-4.57898V-4.57898Z" fill="url(#paint2_linear_51_309)"/>
</g>
<defs>
<linearGradient id="paint0_linear_51_309" x1="2" y1="34.8948" x2="52" y2="34.8948" gradientUnits="userSpaceOnUse">
<stop stop-color="#833AB4"/>
<stop offset="0.5" stop-color="#FD1D1D"/>
<stop offset="1" stop-color="#FCB045"/>
</linearGradient>
<linearGradient id="paint1_linear_51_309" x1="19.1052" y1="40.8157" x2="34.8947" y2="40.8157" gradientUnits="userSpaceOnUse">
<stop stop-color="#833AB4"/>
<stop offset="0.5" stop-color="#FD1D1D"/>
<stop offset="1" stop-color="#FCB045"/>
</linearGradient>
<linearGradient id="paint2_linear_51_309" x1="-4.57898" y1="27" x2="58.5789" y2="27" gradientUnits="userSpaceOnUse">
<stop stop-color="#833AB4"/>
<stop offset="0.5" stop-color="#FD1D1D"/>
<stop offset="1" stop-color="#FCB045"/>
</linearGradient>
</defs>
</svg>
