<svg width="200" height="55" viewBox="0 0 200 55" fill="none" xmlns="http://www.w3.org/2000/svg">
<mask id="mask0_104_1079" style="mask-type:luminance" maskUnits="userSpaceOnUse" x="68" y="0" width="132" height="43">
<path d="M68.9877 0.160309H200V42.0341H68.9877V0.160309Z" fill="white"/>
</mask>
<g mask="url(#mask0_104_1079)">
<mask id="mask1_104_1079" style="mask-type:luminance" maskUnits="userSpaceOnUse" x="69" y="0" width="131" height="43">
<path d="M99.3406 0.160309H194.462C196.436 0.160309 198.259 1.21909 199.239 2.93826C200.219 4.65384 200.201 6.76063 199.192 8.46185L184.23 33.7326C181.182 38.8757 175.644 42.0341 169.665 42.0341H74.5436C72.5696 42.0341 70.7464 40.9718 69.7665 39.2562C68.7903 37.5406 68.8047 35.4302 69.8132 33.7326L84.7761 8.46185C87.8232 3.31511 93.3612 0.160309 99.3406 0.160309Z" fill="white"/>
</mask>
<g mask="url(#mask1_104_1079)">
<path d="M64.8962 0.160309H204.088V42.0341H64.8962V0.160309Z" fill="#ED0909"/>
</g>
</g>
<path d="M22.7691 34.6588H17.2419L5.88609 19.4555V34.6588H0V9.98029H5.54154L16.9261 25.2123V9.98029H22.7691V34.6588Z" fill="#ED0909"/>
<path d="M33.9844 15.4358C37.2756 15.4358 39.7485 16.4515 41.4066 18.4793C43.0612 20.5 43.7826 23.2707 43.5744 26.7916H30.2087C30.5138 27.9222 31.0557 28.7943 31.831 29.4045C32.6062 30.0182 33.5573 30.3233 34.6879 30.3233C36.4286 30.3233 37.9468 29.6772 39.2388 28.3852L42.4547 31.5148C40.4053 33.7544 37.6381 34.8742 34.1567 34.8742C31.0844 34.8742 28.6331 33.9949 26.8063 32.2327C24.9866 30.4632 24.0786 28.1232 24.0786 25.2124C24.0786 22.2765 24.9866 19.9113 26.8063 18.1204C28.6331 16.333 31.027 15.4358 33.9844 15.4358ZM30.1082 23.5184H37.7171C37.7171 22.3699 37.3797 21.4439 36.7121 20.7332C36.041 20.0262 35.1545 19.6709 34.0562 19.6709C33.0225 19.6709 32.1504 20.0226 31.4433 20.7189C30.7435 21.408 30.2984 22.3412 30.1082 23.5184Z" fill="#ED0909"/>
<path d="M53.4135 15.3783C56.0156 15.3783 58.0399 15.9884 59.4863 17.2015C60.9398 18.4075 61.6756 20.0872 61.6971 22.2406V34.6588H55.7393V32.4767C54.4939 34.1241 52.5557 34.946 49.925 34.946C47.9222 34.946 46.3359 34.3968 45.1587 33.295C43.9814 32.186 43.3928 30.7503 43.3928 28.9881C43.3928 27.172 44.0173 25.7651 45.2735 24.7673C46.5369 23.7732 48.3458 23.2599 50.7002 23.2312H55.6962V22.9584C55.6962 22.0109 55.3839 21.2752 54.763 20.7476C54.1385 20.2236 53.2197 19.958 52.0066 19.958C50.2839 19.958 48.3888 20.4856 46.3215 21.5372L44.5988 17.5174C47.6782 16.0925 50.6176 15.3783 53.4135 15.3783ZM51.7913 30.8113C52.7567 30.8113 53.6038 30.5745 54.3323 30.0935C55.0573 29.6162 55.5132 28.9881 55.6962 28.2128V26.5188H51.8631C50.0254 26.5188 49.1066 27.2007 49.1066 28.5574C49.1066 29.268 49.3399 29.8208 49.8101 30.2227C50.2767 30.6175 50.9371 30.8113 51.7913 30.8113Z" fill="#ED0909"/>
<path d="M70.1162 15.6511V18.8669C71.4549 16.5806 73.5115 15.4178 76.2894 15.3783V20.8768C74.5451 20.7153 73.1239 21.0024 72.0256 21.7381C70.9238 22.4775 70.2885 23.5291 70.1162 24.8965V34.6588H64.0148V15.6511H70.1162Z" fill="#ED0909"/>
<path d="M77.2769 10.307H88.0297C91.1774 10.307 93.6215 11.0535 95.3658 12.5466C97.1065 14.0397 97.9787 16.1608 97.9787 18.9064C97.9787 21.7992 97.1065 24.0424 95.3658 25.6396C93.6215 27.2403 91.1774 28.0371 88.0297 28.0371H83.5506V34.9855H77.2769V10.307ZM83.5506 15.2456V23.0985H87.7139C89.0993 23.0985 90.1688 22.7611 90.9154 22.0792C91.6691 21.4009 92.0495 20.4139 92.0495 19.1218C92.0495 17.8513 91.6691 16.8894 90.9154 16.2362C90.1688 15.5758 89.0993 15.2456 87.7139 15.2456H83.5506Z" fill="white"/>
<path d="M107.744 15.7049C110.346 15.7049 112.37 16.3151 113.816 17.5282C115.27 18.7341 116.006 20.4138 116.027 22.5672V34.9855H110.069V32.8033C108.824 34.4507 106.886 35.2726 104.255 35.2726C102.252 35.2726 100.666 34.7235 99.4888 33.6216C98.3116 32.5126 97.723 31.077 97.723 29.3147C97.723 27.4986 98.3475 26.0917 99.6036 25.094C100.867 24.0998 102.676 23.5865 105.03 23.5578H110.026V23.2851C110.026 22.3375 109.714 21.6018 109.093 21.0742C108.469 20.5502 107.55 20.2846 106.337 20.2846C104.614 20.2846 102.719 20.8122 100.652 21.8638L98.9289 17.844C102.008 16.4192 104.948 15.7049 107.744 15.7049ZM106.121 31.138C107.087 31.138 107.934 30.9011 108.662 30.4202C109.387 29.9428 109.843 29.3147 110.026 28.5395V26.8454H106.193C104.356 26.8454 103.437 27.5274 103.437 28.884C103.437 29.5947 103.67 30.1474 104.14 30.5494C104.607 30.9442 105.267 31.138 106.121 31.138Z" fill="white"/>
<path d="M136.624 15.9778L128.398 36.9667C126.991 40.3907 124.551 42.1063 121.077 42.1063C119.045 42.1063 117.2 41.4602 115.535 40.1682L118.076 36.0048C118.916 36.6832 119.749 37.0241 120.574 37.0241C121.654 37.0241 122.444 36.5217 122.943 35.5167L123.402 34.5692L115.506 15.9778H121.78L126.431 28.597L130.552 15.9778H136.624Z" fill="white"/>
<path d="M25.0388 53.4785C25.0388 53.6221 24.985 53.7441 24.8809 53.8374C24.784 53.9236 24.6727 53.9666 24.5507 53.9666C24.4071 53.9666 24.2851 53.9236 24.1918 53.8374C24.1056 53.7441 24.0626 53.6221 24.0626 53.4785V47.535C24.0626 47.4022 24.1056 47.291 24.1918 47.2048C24.2851 47.1115 24.4071 47.0612 24.5507 47.0612C24.6835 47.0612 24.7983 47.1115 24.8952 47.2048C24.9885 47.291 25.0388 47.4022 25.0388 47.535V53.4785Z" fill="black"/>
<path d="M32.7652 48.6835C33.9496 48.6835 34.5454 49.3941 34.5454 50.8082V53.4929C34.5454 53.6293 34.4951 53.7441 34.4018 53.8374C34.3157 53.9236 34.2044 53.9666 34.0716 53.9666C33.9352 53.9666 33.8276 53.9236 33.7414 53.8374C33.6553 53.7441 33.6122 53.6293 33.6122 53.4929V50.8226C33.6122 50.4314 33.5189 50.1191 33.3395 49.8894C33.1672 49.6597 32.8801 49.5449 32.4781 49.5449C32.2089 49.5449 31.9648 49.6023 31.7459 49.7172C31.5342 49.832 31.3655 49.9899 31.2434 50.1909C31.1286 50.3847 31.0712 50.5929 31.0712 50.8226V53.4929C31.0712 53.6293 31.0209 53.7441 30.9276 53.8374C30.8415 53.9236 30.7302 53.9666 30.5974 53.9666C30.461 53.9666 30.3533 53.9236 30.2672 53.8374C30.1811 53.7441 30.138 53.6293 30.138 53.4929V49.2721C30.138 49.1393 30.1811 49.0281 30.2672 48.9419C30.3533 48.8486 30.461 48.7984 30.5974 48.7984C30.7302 48.7984 30.8415 48.8486 30.9276 48.9419C31.0209 49.0281 31.0712 49.1393 31.0712 49.2721V49.6167C31.2434 49.3582 31.4803 49.1393 31.789 48.9563C32.094 48.7768 32.4207 48.6835 32.7652 48.6835Z" fill="black"/>
<path d="M42.148 48.6835C43.3324 48.6835 43.9282 49.3941 43.9282 50.8082V53.4929C43.9282 53.6293 43.878 53.7441 43.7846 53.8374C43.6985 53.9236 43.5872 53.9666 43.4544 53.9666C43.3181 53.9666 43.2104 53.9236 43.1243 53.8374C43.0381 53.7441 42.995 53.6293 42.995 53.4929V50.8226C42.995 50.4314 42.9017 50.1191 42.7223 49.8894C42.55 49.6597 42.2629 49.5449 41.8609 49.5449C41.5917 49.5449 41.3477 49.6023 41.1287 49.7172C40.917 49.832 40.7483 49.9899 40.6263 50.1909C40.5114 50.3847 40.454 50.5929 40.454 50.8226V53.4929C40.454 53.6293 40.4037 53.7441 40.3104 53.8374C40.2243 53.9236 40.113 53.9666 39.9802 53.9666C39.8438 53.9666 39.7362 53.9236 39.65 53.8374C39.5639 53.7441 39.5208 53.6293 39.5208 53.4929V49.2721C39.5208 49.1393 39.5639 49.0281 39.65 48.9419C39.7362 48.8486 39.8438 48.7984 39.9802 48.7984C40.113 48.7984 40.2243 48.8486 40.3104 48.9419C40.4037 49.0281 40.454 49.1393 40.454 49.2721V49.6167C40.6263 49.3582 40.8631 49.1393 41.1718 48.9563C41.4769 48.7768 41.8035 48.6835 42.148 48.6835Z" fill="black"/>
<path d="M53.7992 51.3825C53.7992 51.8993 53.6771 52.3659 53.4403 52.7751C53.2106 53.177 52.8947 53.4929 52.4928 53.7226C52.098 53.9523 51.6637 54.0671 51.1863 54.0671C50.7054 54.0671 50.2675 53.9523 49.8655 53.7226C49.4707 53.4929 49.1621 53.177 48.9324 52.7751C48.7027 52.3659 48.5878 51.8993 48.5878 51.3825C48.5878 50.8657 48.7027 50.4027 48.9324 49.9899C49.1621 49.5808 49.4707 49.2578 49.8655 49.0281C50.2675 48.7984 50.7054 48.6835 51.1863 48.6835C51.6637 48.6835 52.098 48.7984 52.4928 49.0281C52.8947 49.2578 53.2106 49.5808 53.4403 49.9899C53.6771 50.4027 53.7992 50.8657 53.7992 51.3825ZM52.8517 51.3825C52.8517 51.0308 52.7727 50.7149 52.622 50.435C52.4784 50.1586 52.2774 49.9433 52.019 49.7889C51.7678 49.6274 51.4914 49.5449 51.1863 49.5449C50.8777 49.5449 50.5977 49.6274 50.3393 49.7889C50.0881 49.9433 49.8871 50.1586 49.7363 50.435C49.5928 50.7149 49.521 51.0308 49.521 51.3825C49.521 51.727 49.5928 52.0393 49.7363 52.3157C49.8871 52.5956 50.0881 52.8109 50.3393 52.9617C50.5977 53.116 50.8777 53.1914 51.1863 53.1914C51.4914 53.1914 51.7678 53.116 52.019 52.9617C52.2774 52.8109 52.4784 52.5956 52.622 52.3157C52.7727 52.0393 52.8517 51.727 52.8517 51.3825Z" fill="black"/>
<path d="M62.4021 48.7553C62.5242 48.7553 62.6246 48.7984 62.7036 48.8845C62.7897 48.9635 62.8328 49.0532 62.8328 49.1573C62.8328 49.2255 62.8113 49.3116 62.7754 49.4157L60.8947 53.6652C60.8552 53.7513 60.7978 53.8231 60.7224 53.8805C60.6542 53.9308 60.5789 53.9595 60.4927 53.9667C60.3851 53.9739 60.2846 53.9595 60.1913 53.9093C60.1051 53.8518 60.0405 53.7729 60.0046 53.6652L58.1239 49.4157C58.0952 49.3116 58.0809 49.2255 58.0809 49.1573C58.0809 49.0532 58.1239 48.9635 58.2101 48.8845C58.2962 48.7984 58.4039 48.7553 58.5403 48.7553C58.6336 48.7553 58.7197 48.7805 58.7987 48.8271C58.8848 48.8774 58.9494 48.9492 58.9997 49.0425L60.4784 52.5023L61.9714 49.0425C62.0648 48.8522 62.2083 48.7553 62.4021 48.7553Z" fill="black"/>
<path d="M71.625 48.7266C71.7577 48.7266 71.869 48.7768 71.9551 48.8701C72.0485 48.9563 72.0987 49.0711 72.0987 49.2147V53.4929C72.0987 53.6293 72.0485 53.7441 71.9551 53.8374C71.869 53.9236 71.7577 53.9666 71.625 53.9666C71.4814 53.9666 71.3665 53.9236 71.2804 53.8374C71.1943 53.7441 71.1512 53.6293 71.1512 53.4929V53.2345C70.9861 53.4642 70.7564 53.6616 70.4621 53.8231C70.1642 53.9846 69.8448 54.0671 69.5002 54.0671C69.048 54.0671 68.6424 53.9523 68.2799 53.7226C67.9138 53.4929 67.6267 53.1734 67.4185 52.7607C67.2176 52.3515 67.1171 51.885 67.1171 51.3681C67.1171 50.8621 67.2176 50.4027 67.4185 49.9899C67.6267 49.5808 67.9138 49.2578 68.2799 49.0281C68.6424 48.7984 69.0408 48.6835 69.4715 48.6835C69.8161 48.6835 70.1355 48.7553 70.4334 48.8988C70.7384 49.0424 70.9789 49.2255 71.1512 49.4444V49.2147C71.1512 49.0711 71.1943 48.9563 71.2804 48.8701C71.3665 48.7768 71.4814 48.7266 71.625 48.7266ZM69.6151 53.1914C69.9201 53.1914 70.1929 53.116 70.4334 52.9617C70.6703 52.8002 70.8569 52.5848 70.9933 52.3157C71.1261 52.0393 71.1943 51.7235 71.1943 51.3681C71.1943 51.0344 71.1261 50.7293 70.9933 50.4493C70.8569 50.173 70.6703 49.954 70.4334 49.7889C70.1929 49.6274 69.9201 49.5449 69.6151 49.5449C69.2992 49.5449 69.0193 49.6274 68.7824 49.7889C68.5419 49.9433 68.3553 50.1586 68.2225 50.435C68.0861 50.7149 68.0215 51.0236 68.0215 51.3681C68.0215 51.7235 68.0861 52.0393 68.2225 52.3157C68.3553 52.5848 68.5419 52.8002 68.7824 52.9617C69.0193 53.116 69.2992 53.1914 69.6151 53.1914Z" fill="black"/>
<path d="M78.4546 49.7172V52.6603C78.4546 52.9869 78.6018 53.1484 78.8997 53.1484C78.9463 53.1484 79.0074 53.1412 79.0863 53.1197C79.1725 53.0909 79.2335 53.0766 79.273 53.0766C79.3591 53.0766 79.4309 53.1161 79.4883 53.1914C79.5529 53.2596 79.5888 53.3494 79.5888 53.4642C79.5888 53.6006 79.5062 53.719 79.3447 53.8231C79.1904 53.92 79.0145 53.9667 78.8136 53.9667C78.591 53.9667 78.39 53.9452 78.2106 53.8949C78.0383 53.8482 77.8804 53.7334 77.7368 53.5504C77.5933 53.3601 77.5215 53.073 77.5215 52.689V49.7172H76.9472C76.8216 49.7172 76.7175 49.6813 76.6314 49.6024C76.5524 49.5162 76.5165 49.4121 76.5165 49.2865C76.5165 49.1645 76.5524 49.064 76.6314 48.985C76.7175 48.8989 76.8216 48.8558 76.9472 48.8558H77.5215V48.0232C77.5215 47.9011 77.5646 47.7899 77.6507 47.693C77.744 47.5997 77.8589 47.5494 77.9952 47.5494C78.128 47.5494 78.2393 47.5997 78.3254 47.693C78.4116 47.7899 78.4546 47.9011 78.4546 48.0232V48.8558H79.273C79.395 48.8558 79.5027 48.8989 79.5888 48.985C79.6749 49.064 79.718 49.1645 79.718 49.2865C79.718 49.4121 79.6749 49.5162 79.5888 49.6024C79.5027 49.6813 79.395 49.7172 79.273 49.7172H78.4546Z" fill="black"/>
<path d="M85.2756 53.4929C85.2756 53.6293 85.2254 53.7442 85.1321 53.8375C85.0459 53.9236 84.9347 53.9667 84.8019 53.9667C84.6655 53.9667 84.5507 53.9236 84.4573 53.8375C84.3712 53.7442 84.3281 53.6293 84.3281 53.4929V49.2291C84.3281 49.0963 84.3712 48.985 84.4573 48.8989C84.5507 48.8056 84.6655 48.7553 84.8019 48.7553C84.9347 48.7553 85.0459 48.8056 85.1321 48.8989C85.2254 48.985 85.2756 49.0963 85.2756 49.2291V53.4929ZM84.8019 48.095C84.6081 48.095 84.4717 48.0627 84.3856 47.9945C84.2994 47.9299 84.2563 47.8186 84.2563 47.6643V47.5063C84.2563 47.3556 84.2994 47.2443 84.3856 47.1761C84.4789 47.1115 84.6188 47.0757 84.8019 47.0757C84.9813 47.0757 85.1177 47.1115 85.2039 47.1761C85.29 47.2443 85.3331 47.3556 85.3331 47.5063V47.6643C85.3331 47.8186 85.29 47.9299 85.2039 47.9945C85.1177 48.0627 84.9813 48.095 84.8019 48.095Z" fill="black"/>
<path d="M95.097 51.3825C95.097 51.8993 94.9749 52.3659 94.7381 52.7751C94.5084 53.177 94.1925 53.4929 93.7905 53.7226C93.3957 53.9523 92.9615 54.0671 92.4841 54.0671C92.0032 54.0671 91.5653 53.9523 91.1633 53.7226C90.7685 53.4929 90.4599 53.177 90.2302 52.7751C90.0005 52.3659 89.8856 51.8993 89.8856 51.3825C89.8856 50.8657 90.0005 50.4027 90.2302 49.9899C90.4599 49.5808 90.7685 49.2578 91.1633 49.0281C91.5653 48.7984 92.0032 48.6835 92.4841 48.6835C92.9615 48.6835 93.3957 48.7984 93.7905 49.0281C94.1925 49.2578 94.5084 49.5808 94.7381 49.9899C94.9749 50.4027 95.097 50.8657 95.097 51.3825ZM94.1494 51.3825C94.1494 51.0308 94.0705 50.7149 93.9197 50.435C93.7762 50.1586 93.5752 49.9433 93.3168 49.7889C93.0655 49.6274 92.7892 49.5449 92.4841 49.5449C92.1755 49.5449 91.8955 49.6274 91.6371 49.7889C91.3859 49.9433 91.1849 50.1586 91.0341 50.435C90.8906 50.7149 90.8188 51.0308 90.8188 51.3825C90.8188 51.727 90.8906 52.0393 91.0341 52.3157C91.1849 52.5956 91.3859 52.8109 91.6371 52.9617C91.8955 53.116 92.1755 53.1914 92.4841 53.1914C92.7892 53.1914 93.0655 53.116 93.3168 52.9617C93.5752 52.8109 93.7762 52.5956 93.9197 52.3157C94.0705 52.0393 94.1494 51.727 94.1494 51.3825Z" fill="black"/>
<path d="M102.379 48.6835C103.563 48.6835 104.159 49.3941 104.159 50.8082V53.4929C104.159 53.6293 104.109 53.7441 104.016 53.8374C103.929 53.9236 103.818 53.9666 103.685 53.9666C103.549 53.9666 103.441 53.9236 103.355 53.8374C103.269 53.7441 103.226 53.6293 103.226 53.4929V50.8226C103.226 50.4314 103.133 50.1191 102.953 49.8894C102.781 49.6597 102.494 49.5449 102.092 49.5449C101.823 49.5449 101.579 49.6023 101.36 49.7172C101.148 49.832 100.979 49.9899 100.857 50.1909C100.742 50.3847 100.685 50.5929 100.685 50.8226V53.4929C100.685 53.6293 100.635 53.7441 100.541 53.8374C100.455 53.9236 100.344 53.9666 100.211 53.9666C100.075 53.9666 99.9671 53.9236 99.881 53.8374C99.7948 53.7441 99.7518 53.6293 99.7518 53.4929V49.2721C99.7518 49.1393 99.7948 49.0281 99.881 48.9419C99.9671 48.8486 100.075 48.7984 100.211 48.7984C100.344 48.7984 100.455 48.8486 100.541 48.9419C100.635 49.0281 100.685 49.1393 100.685 49.2721V49.6167C100.857 49.3582 101.094 49.1393 101.403 48.9563C101.708 48.7768 102.034 48.6835 102.379 48.6835Z" fill="black"/>
<path d="M108.833 53.1627C108.776 53.0694 108.747 52.976 108.747 52.8899C108.747 52.7571 108.812 52.6458 108.948 52.5597C109.013 52.5131 109.092 52.4879 109.178 52.4879C109.3 52.4879 109.411 52.5382 109.508 52.6315C109.698 52.8612 109.91 53.0335 110.14 53.1483C110.369 53.256 110.642 53.3062 110.958 53.3062C111.205 53.2991 111.424 53.2416 111.618 53.134C111.808 53.0299 111.905 52.854 111.905 52.6028C111.905 52.3838 111.805 52.2152 111.604 52.1003C111.41 51.9783 111.13 51.867 110.757 51.7701C110.391 51.666 110.086 51.5619 109.838 51.4543C109.598 51.3502 109.393 51.1959 109.221 50.9949C109.056 50.7867 108.977 50.5139 108.977 50.1766C108.977 49.8823 109.056 49.6238 109.221 49.4013C109.393 49.1716 109.616 48.9958 109.895 48.8701C110.172 48.7481 110.477 48.6835 110.814 48.6835C111.13 48.6835 111.439 48.7481 111.747 48.8701C112.063 48.985 112.314 49.1644 112.508 49.4013C112.594 49.4982 112.638 49.5951 112.638 49.6884C112.638 49.7961 112.584 49.8966 112.48 49.9899C112.411 50.0474 112.325 50.0761 112.221 50.0761C112.106 50.0761 112.013 50.0402 111.948 49.9612C111.805 49.8105 111.633 49.6884 111.432 49.6023C111.231 49.5162 111.008 49.4731 110.771 49.4731C110.52 49.4731 110.305 49.5269 110.125 49.631C109.953 49.7279 109.867 49.8966 109.867 50.1335C109.874 50.3632 109.974 50.5355 110.168 50.6503C110.369 50.7652 110.664 50.8764 111.058 50.9805C111.41 51.0667 111.704 51.1636 111.934 51.2676C112.164 51.3753 112.354 51.5332 112.508 51.7414C112.67 51.9532 112.752 52.2259 112.752 52.5597C112.752 52.8684 112.659 53.134 112.48 53.3637C112.307 53.5862 112.078 53.7585 111.79 53.8805C111.503 54.0025 111.195 54.0671 110.872 54.0671C110.459 54.0671 110.075 53.9953 109.723 53.8518C109.379 53.7082 109.081 53.4785 108.833 53.1627Z" fill="black"/>
<path d="M126.594 47.0612C126.945 47.0612 127.272 47.1582 127.57 47.3484C127.864 47.5314 128.101 47.7862 128.273 48.1093C128.446 48.4359 128.532 48.7912 128.532 49.1716C128.532 49.5664 128.446 49.9253 128.273 50.2484C128.101 50.575 127.864 50.8334 127.57 51.0236C127.272 51.2174 126.945 51.3107 126.594 51.3107H124.742V53.4929C124.742 53.6293 124.699 53.7441 124.613 53.8374C124.526 53.9236 124.419 53.9666 124.297 53.9666C124.153 53.9666 124.038 53.9236 123.952 53.8374C123.873 53.7441 123.837 53.6293 123.837 53.4929V47.535C123.837 47.4022 123.88 47.291 123.966 47.2048C124.06 47.1115 124.175 47.0612 124.311 47.0612H126.594ZM126.594 50.4206C126.773 50.4206 126.942 50.3632 127.096 50.2484C127.247 50.1335 127.369 49.9828 127.455 49.789C127.541 49.5987 127.584 49.3942 127.584 49.1716C127.584 48.8378 127.487 48.5543 127.297 48.3246C127.103 48.0877 126.87 47.9657 126.594 47.9657H124.742V50.4206H126.594Z" fill="black"/>
<path d="M137.162 48.7553C137.284 48.7553 137.384 48.7984 137.463 48.8845C137.549 48.9635 137.592 49.0532 137.592 49.1573C137.592 49.2255 137.571 49.3116 137.535 49.4157L135.654 53.6652C135.615 53.7513 135.557 53.8231 135.482 53.8805C135.414 53.9308 135.338 53.9595 135.252 53.9667C135.145 53.9739 135.044 53.9595 134.951 53.9093C134.865 53.8518 134.8 53.7729 134.764 53.6652L132.883 49.4157C132.855 49.3116 132.84 49.2255 132.84 49.1573C132.84 49.0532 132.883 48.9635 132.97 48.8845C133.056 48.7984 133.163 48.7553 133.3 48.7553C133.393 48.7553 133.479 48.7805 133.558 48.8271C133.644 48.8774 133.709 48.9492 133.759 49.0425L135.238 52.5023L136.731 49.0425C136.824 48.8522 136.968 48.7553 137.162 48.7553Z" fill="black"/>
<path d="M143.585 49.7172V52.6603C143.585 52.9869 143.732 53.1484 144.03 53.1484C144.077 53.1484 144.138 53.1412 144.217 53.1197C144.303 53.0909 144.364 53.0766 144.403 53.0766C144.489 53.0766 144.561 53.1161 144.619 53.1914C144.683 53.2596 144.719 53.3494 144.719 53.4642C144.719 53.6006 144.637 53.719 144.475 53.8231C144.321 53.92 144.145 53.9667 143.944 53.9667C143.721 53.9667 143.52 53.9452 143.341 53.8949C143.169 53.8482 143.011 53.7334 142.867 53.5504C142.724 53.3601 142.652 53.073 142.652 52.689V49.7172H142.078C141.952 49.7172 141.848 49.6813 141.762 49.6024C141.683 49.5162 141.647 49.4121 141.647 49.2865C141.647 49.1645 141.683 49.064 141.762 48.985C141.848 48.8989 141.952 48.8558 142.078 48.8558H142.652V48.0232C142.652 47.9011 142.695 47.7899 142.781 47.693C142.874 47.5997 142.989 47.5494 143.126 47.5494C143.258 47.5494 143.37 47.5997 143.456 47.693C143.542 47.7899 143.585 47.9011 143.585 48.0232V48.8558H144.403C144.525 48.8558 144.633 48.8989 144.719 48.985C144.805 49.064 144.848 49.1645 144.848 49.2865C144.848 49.4121 144.805 49.5162 144.719 49.6024C144.633 49.6813 144.525 49.7172 144.403 49.7172H143.585Z" fill="black"/>
<path d="M149.846 53.9523C149.692 53.9523 149.573 53.9092 149.487 53.8231C149.401 53.7369 149.358 53.6149 149.358 53.4498V53.2632C149.358 53.1124 149.401 52.9904 149.487 52.9043C149.573 52.8181 149.692 52.7751 149.846 52.7751H149.947C150.108 52.7751 150.227 52.8181 150.305 52.9043C150.392 52.9904 150.435 53.1124 150.435 53.2632V53.4498C150.435 53.7872 150.27 53.9523 149.947 53.9523H149.846Z" fill="black"/>
<path d="M159.192 53.0478C159.335 53.0478 159.45 53.0909 159.536 53.177C159.623 53.2632 159.666 53.3744 159.666 53.5072C159.666 53.6436 159.623 53.7513 159.536 53.8374C159.45 53.9236 159.335 53.9666 159.192 53.9666H155.861C155.725 53.9666 155.61 53.9236 155.517 53.8374C155.431 53.7441 155.387 53.6293 155.387 53.4929V47.535C155.387 47.4022 155.431 47.291 155.517 47.2048C155.61 47.1115 155.732 47.0612 155.876 47.0612C156.008 47.0612 156.123 47.1115 156.22 47.2048C156.313 47.291 156.364 47.4022 156.364 47.535V53.0478H159.192Z" fill="black"/>
<path d="M165.664 49.7172V52.6603C165.664 52.9869 165.811 53.1484 166.109 53.1484C166.155 53.1484 166.216 53.1412 166.295 53.1197C166.382 53.0909 166.443 53.0766 166.482 53.0766C166.568 53.0766 166.64 53.1161 166.697 53.1914C166.762 53.2596 166.798 53.3494 166.798 53.4642C166.798 53.6006 166.715 53.719 166.554 53.8231C166.4 53.92 166.224 53.9667 166.023 53.9667C165.8 53.9667 165.599 53.9452 165.42 53.8949C165.247 53.8482 165.09 53.7334 164.946 53.5504C164.802 53.3601 164.731 53.073 164.731 52.689V49.7172H164.156C164.031 49.7172 163.927 49.6813 163.841 49.6024C163.762 49.5162 163.726 49.4121 163.726 49.2865C163.726 49.1645 163.762 49.064 163.841 48.985C163.927 48.8989 164.031 48.8558 164.156 48.8558H164.731V48.0232C164.731 47.9011 164.774 47.7899 164.86 47.693C164.953 47.5997 165.068 47.5494 165.204 47.5494C165.337 47.5494 165.448 47.5997 165.535 47.693C165.621 47.7899 165.664 47.9011 165.664 48.0232V48.8558H166.482C166.604 48.8558 166.712 48.8989 166.798 48.985C166.884 49.064 166.927 49.1645 166.927 49.2865C166.927 49.4121 166.884 49.5162 166.798 49.6024C166.712 49.6813 166.604 49.7172 166.482 49.7172H165.664Z" fill="black"/>
<path d="M175.787 46.6736C175.919 46.6736 176.031 46.7167 176.117 46.8029C176.21 46.889 176.26 47.0038 176.26 47.1474V53.4929C176.26 53.6293 176.21 53.7441 176.117 53.8375C176.031 53.9236 175.919 53.9667 175.787 53.9667C175.643 53.9667 175.528 53.9236 175.442 53.8375C175.356 53.7441 175.313 53.6293 175.313 53.4929V53.2201C175.148 53.4606 174.918 53.6616 174.624 53.8231C174.326 53.9846 174.006 54.0672 173.662 54.0672C173.21 54.0672 172.804 53.9523 172.442 53.7226C172.086 53.4929 171.803 53.1735 171.595 52.7607C171.383 52.3516 171.279 51.885 171.279 51.3682C171.279 50.8621 171.379 50.4027 171.58 49.99C171.788 49.5808 172.076 49.2578 172.442 49.0281C172.804 48.7984 173.202 48.6835 173.633 48.6835C173.978 48.6835 174.297 48.7553 174.595 48.8989C174.889 49.0424 175.13 49.2291 175.313 49.4588V47.1474C175.313 47.0038 175.356 46.889 175.442 46.8029C175.528 46.7167 175.643 46.6736 175.787 46.6736ZM173.777 53.1914C174.082 53.1914 174.355 53.116 174.595 52.9617C174.832 52.8002 175.019 52.5849 175.155 52.3157C175.288 52.0393 175.356 51.7235 175.356 51.3682C175.356 51.0344 175.288 50.7293 175.155 50.4494C175.019 50.1622 174.832 49.9433 174.595 49.789C174.355 49.6275 174.082 49.5449 173.777 49.5449C173.461 49.5449 173.181 49.6275 172.944 49.789C172.704 49.9433 172.517 50.1622 172.384 50.4494C172.248 50.7293 172.183 51.0344 172.183 51.3682C172.183 51.7235 172.248 52.0393 172.384 52.3157C172.517 52.5849 172.704 52.8002 172.944 52.9617C173.181 53.116 173.461 53.1914 173.777 53.1914Z" fill="black"/>
</svg>
