<svg width="146" height="138" viewBox="0 0 146 138" fill="none" xmlns="http://www.w3.org/2000/svg">
<path d="M67.0403 2.48024C67.2253 5.29646 67.1842 8.13323 66.9169 10.9289C66.8758 11.2783 66.8552 11.6278 66.7936 11.9567C66.773 12.1212 66.7525 12.2856 66.7319 12.4501C66.7114 12.6967 66.7936 12.0595 66.7319 12.4295C66.7114 12.5323 66.7113 12.6556 66.6908 12.7584C66.588 13.4573 66.4647 14.1562 66.3414 14.8551C66.0742 16.253 65.7247 17.6508 65.3136 19.0075C65.108 19.6448 64.9024 20.282 64.6763 20.9193C64.553 21.2276 64.4501 21.536 64.3062 21.8443C64.2857 21.906 64.2034 22.0088 64.2034 22.091C64.2034 21.8854 64.3268 21.8238 64.2446 21.9677C64.1624 22.1321 64.1007 22.2965 64.0185 22.461C63.5251 23.5505 62.929 24.5989 62.2712 25.5856C62.1273 25.8117 61.9629 26.0378 61.7984 26.2639C61.7162 26.3872 61.6133 26.5106 61.5311 26.6339C61.49 26.675 61.4489 26.7367 61.4283 26.7778C61.6339 26.4078 61.5106 26.675 61.4489 26.7573C61.0789 27.2301 60.6678 27.7029 60.2567 28.1551C59.8456 28.5868 59.4344 28.9979 58.9822 29.409C58.7766 29.594 58.5505 29.779 58.3244 29.9641C58.2216 30.0463 58.1188 30.1285 58.0161 30.2107C57.8516 30.3341 58.3244 29.9641 58.0777 30.1696C57.9955 30.2313 57.9338 30.2724 57.8516 30.3341C57.3171 30.7246 56.762 31.0947 56.1865 31.4236C55.6109 31.7525 55.0148 31.9991 54.4187 32.3075C54.4393 32.2869 54.7681 32.1636 54.542 32.2458C54.4597 32.2869 54.3776 32.3075 54.2953 32.3486C54.1309 32.4103 53.9664 32.4719 53.7814 32.5336C53.4731 32.6364 53.1647 32.7392 52.8358 32.8214C52.1986 33.0064 51.5408 33.1297 50.883 33.212C50.5335 33.2531 50.1224 33.6231 49.9579 33.9109C49.7935 34.2192 49.7318 34.5481 49.773 34.8976C49.8757 35.6376 50.513 36.2337 51.2941 36.2337C52.7947 36.2132 54.2953 36.2132 55.7959 36.316C56.1454 36.3365 56.4743 36.3776 56.8237 36.4187C56.8443 36.4187 57.2143 36.4804 56.9677 36.4393C56.7004 36.3982 57.0704 36.4599 57.1115 36.4599C57.2965 36.4804 57.4816 36.5215 57.6666 36.5627C58.4066 36.7065 59.1261 36.8915 59.825 37.1177C59.9483 37.1588 60.0922 37.2204 60.2155 37.2615C60.2772 37.2821 60.3594 37.3232 60.4211 37.3438C60.5444 37.3849 60.6678 37.5082 60.3389 37.3027C60.5856 37.4671 60.8939 37.5494 61.1611 37.6933C61.6751 37.9605 62.1684 38.2483 62.6207 38.5772C62.744 38.6594 62.8673 38.7416 62.9906 38.8444C63.0318 38.8855 63.0935 38.9266 63.1346 38.9472C63.3401 39.0911 63.0523 38.8855 63.0318 38.865C63.2374 39.0705 63.5046 39.2555 63.7307 39.4405C64.1829 39.8517 64.6146 40.2628 65.0257 40.715C65.2107 40.9206 65.3957 41.1261 65.5602 41.3317C65.6424 41.4345 65.7247 41.5373 65.8275 41.6606C65.9508 41.8251 65.6013 41.3523 65.7863 41.599C65.848 41.6812 65.8891 41.7428 65.9507 41.8251C66.3002 42.2979 66.6086 42.7912 66.9169 43.2846C67.2253 43.7985 67.5131 44.3329 67.7803 44.8674C67.9037 45.1346 68.027 45.4019 68.1503 45.6691C68.1709 45.7308 68.1914 45.7924 68.2325 45.8336C68.0681 45.443 68.1708 45.6691 68.2119 45.7719C68.2736 45.9363 68.3353 46.0802 68.397 46.2447C68.8698 47.4781 69.2192 48.732 69.4865 50.0065C69.5687 50.3765 69.6304 50.726 69.692 51.096C69.7126 51.2399 69.7331 51.4043 69.7742 51.5482C69.7948 51.6715 69.8154 51.7743 69.8154 51.8977C69.8154 51.836 69.7948 51.7743 69.7948 51.7127C69.7948 51.7949 69.8154 51.8565 69.8154 51.9388C69.8976 52.6788 69.9798 53.3983 70.0209 54.1383C70.2471 57.5301 70.0415 60.9425 69.8154 64.3137C69.7743 65.0743 70.4321 65.7321 71.1515 65.8349C71.9121 65.9376 72.611 65.4649 72.8371 64.7248C74.4611 59.5652 74.6667 54.1177 75.8795 48.8759C76.1467 47.7042 76.455 46.5325 76.8662 45.3813C76.9484 45.1346 77.0512 44.8879 77.1335 44.6618C77.1746 44.5385 77.2568 44.4152 77.2979 44.2713C77.2979 44.2918 77.1539 44.6207 77.2567 44.3946C77.2773 44.3329 77.3185 44.2507 77.339 44.189C77.5651 43.6957 77.7912 43.2229 78.0379 42.7501C78.5313 41.8045 79.1068 40.9 79.7441 40.0572C79.7852 40.0161 79.8263 39.9544 79.8468 39.9133C79.6413 40.2217 79.703 40.0983 79.7646 40.0161C79.8469 39.9133 79.9291 39.8105 80.0113 39.7078C80.1758 39.5022 80.3607 39.2966 80.5457 39.0911C80.8952 38.7005 81.2653 38.3305 81.6353 38.0016C81.8614 37.796 82.0669 37.611 82.3136 37.426C82.3547 37.3849 82.3959 37.3643 82.4575 37.3232C82.0875 37.611 82.3547 37.4054 82.4164 37.3438C82.5397 37.2616 82.6425 37.1793 82.7659 37.0971C83.2181 36.7888 83.6909 36.501 84.1842 36.2543C84.3076 36.1926 84.4515 36.131 84.5748 36.0693C84.6365 36.0487 84.6776 36.0282 84.7393 36.0076C85.0271 35.8843 84.4309 36.131 84.6981 36.0282C84.9654 35.9254 85.2326 35.8226 85.5204 35.7404C85.8082 35.6582 86.0754 35.5759 86.3632 35.5143C86.4866 35.4937 86.6304 35.4526 86.7538 35.4321C86.8771 35.4115 87.4527 35.3293 86.9182 35.3909C87.3293 35.3293 87.7199 35.2676 88.0077 34.9387C88.2339 34.692 88.3778 34.4042 88.4394 34.0548C88.5422 33.3559 88.0899 32.5131 87.3293 32.3692C86.7332 32.2458 86.1371 32.1019 85.541 31.9169C85.2737 31.8347 85.027 31.7319 84.7598 31.6497C84.6159 31.588 84.4721 31.5263 84.3282 31.4852C84.801 31.6702 84.2664 31.4441 84.1431 31.403C83.0536 30.8891 82.0053 30.2724 81.0392 29.5529C80.998 29.5118 80.9363 29.4707 80.8952 29.4501C80.6897 29.2857 80.9775 29.5118 80.998 29.5324C80.8952 29.4296 80.7514 29.3474 80.628 29.2446C80.3814 29.039 80.1552 28.854 79.929 28.6485C79.4768 28.2373 79.0246 27.8056 78.6135 27.3329C78.2023 26.8806 77.8118 26.4284 77.4212 25.9556C77.3801 25.8939 77.339 25.8322 77.2773 25.7706C77.2978 25.7911 77.5035 26.0583 77.339 25.8528C77.2362 25.7294 77.1539 25.6061 77.0512 25.4828C76.8661 25.2361 76.6812 24.9689 76.5168 24.7222C75.8384 23.7149 75.2422 22.646 74.7077 21.5565C74.5844 21.2893 74.4611 21.0426 74.3378 20.7754C74.2967 20.7137 74.2761 20.6315 74.2556 20.5698C74.1528 20.3437 74.2966 20.652 74.2966 20.6726C74.235 20.4876 74.1527 20.3231 74.0911 20.1587C73.8649 19.6037 73.6594 19.0281 73.4538 18.4525C72.5904 15.9241 71.9532 13.3134 71.4393 10.6822C71.1515 9.22272 70.8843 7.74267 70.6582 6.26261C70.5554 5.5637 70.4526 4.88534 70.3499 4.18643C70.3088 3.83697 70.247 3.50807 70.2059 3.15861C70.1854 3.03527 70.1031 2.45969 70.1854 2.9736C70.1648 2.78859 70.1443 2.62415 70.1237 2.43914C70.0621 2.00746 69.9798 1.65799 69.6714 1.34964C69.4042 1.08241 68.9726 0.876857 68.582 0.897414C68.1914 0.91797 67.7597 1.0413 67.4925 1.34964C67.2252 1.67854 66.9786 2.08967 67.0403 2.48024C67.7597 7.88656 68.582 13.3545 70.2471 18.5553C71.8505 23.5094 74.4611 28.2373 78.5518 31.5469C80.8747 33.4175 83.547 34.8565 86.4866 35.4115C86.6305 34.4042 86.7538 33.397 86.8977 32.3897C85.6232 32.5542 84.4515 32.8831 83.2592 33.397C82.2108 33.8492 81.2446 34.4659 80.3402 35.1854C78.5723 36.5626 77.1129 38.3511 75.9617 40.2628C74.7489 42.2568 73.8649 44.4563 73.2688 46.7175C72.5493 49.3898 72.1382 52.1443 71.7271 54.8783C71.2748 57.9618 70.802 61.0452 69.8564 64.0259C70.8637 64.1698 71.871 64.2931 72.8783 64.437C73.2688 58.3524 73.6183 51.9799 71.5627 46.1213C69.8565 41.2289 66.5058 36.6449 61.6339 34.5892C58.3654 33.212 54.7887 33.1708 51.2941 33.212C51.438 34.2192 51.5613 35.2265 51.7052 36.2337C56.8854 35.5143 61.305 32.1636 64.3268 28.0523C67.6775 23.4888 69.137 17.7536 69.836 12.2034C70.2471 8.97605 70.3293 5.72814 70.1032 2.50079C70.0415 1.6991 69.4248 0.917955 68.5614 0.959068C67.7803 0.979624 66.9786 1.61688 67.0403 2.48024Z" fill="white"/>
<path d="M9.95506 44.2712C10.3045 45.8129 10.6129 47.3752 10.8801 48.9375C11.024 49.6981 11.1474 50.4586 11.2502 51.2192C11.3118 51.6098 11.3735 51.9798 11.4146 52.3704C11.4351 52.5348 11.4556 52.7198 11.4762 52.8843C11.5173 53.1721 11.4762 52.9049 11.4762 52.8637C11.4968 52.9871 11.5174 53.1104 11.5174 53.2543C11.9285 56.3583 12.1751 59.4623 12.2985 62.5869C12.3601 63.9231 12.3602 65.2387 12.278 66.5748C12.2574 66.8832 12.2368 67.1915 12.1957 67.4999C12.1751 67.6643 12.1546 67.8287 12.134 67.9932C12.1135 68.1576 12.1752 68.281 12.134 67.9521C12.1546 68.0549 12.0929 68.1782 12.0929 68.281C11.9901 68.9182 11.8668 69.5349 11.6818 70.1516C11.5995 70.46 11.4968 70.7477 11.394 71.0561C11.3529 71.1794 11.2707 71.3233 11.2502 71.4467C11.3324 71.1383 11.3323 71.2822 11.2912 71.3644C11.2501 71.4672 11.209 71.5494 11.1679 71.6522C10.8801 72.2484 10.5512 72.8034 10.1606 73.3378C10.0578 73.4612 9.97563 73.6051 9.87285 73.7284C9.89341 73.6873 10.0785 73.4612 9.914 73.6668C9.87289 73.7284 9.83174 73.7901 9.77007 73.8312C9.56451 74.0984 9.33835 74.3657 9.11223 74.6329C8.68054 75.1262 8.20781 75.6196 7.73501 76.0924C7.22111 76.6063 6.68658 77.0791 6.13156 77.5519C5.84377 77.7986 5.55602 78.0452 5.24768 78.2714C5.18601 78.333 5.10378 78.3947 5.04211 78.4358C5.001 78.4564 4.75432 78.6619 4.93933 78.518C5.1449 78.3742 4.85711 78.5797 4.83655 78.6003C4.75432 78.6619 4.65158 78.7236 4.56936 78.8058C3.33598 79.7103 2.06149 80.5531 0.766436 81.3548C0.211415 81.7043 -0.158679 82.4443 0.0674408 83.1021C0.273004 83.7188 0.869178 84.2738 1.54754 84.2327C2.84259 84.1505 4.13763 84.0888 5.45324 84.1505C6.31661 84.1916 7.17997 84.2738 8.02278 84.3766C8.49558 84.4177 8.94778 84.4588 9.42057 84.4999C9.56447 84.4999 9.70838 84.5205 9.85227 84.541C9.89339 84.541 9.91394 84.5411 9.95506 84.5616C10.1195 84.5822 10.0784 84.5822 9.8317 84.541C9.87281 84.5616 9.97567 84.5616 10.0168 84.5616C10.3457 84.6233 10.6745 84.6849 11.0035 84.7877C11.2912 84.87 11.579 84.9727 11.8463 85.0755C11.9285 85.0961 11.9902 85.1372 12.0724 85.1577C12.278 85.24 11.7023 84.9933 12.0107 85.1372C12.1751 85.2194 12.3191 85.2811 12.4835 85.3633C13.0591 85.6511 13.5936 85.98 14.1075 86.35C14.1691 86.3911 14.2308 86.4528 14.2925 86.4939C14.5186 86.6583 14.2308 86.4528 14.2103 86.4322C14.2719 86.535 14.498 86.6584 14.5802 86.7406C14.8475 86.9667 15.0942 87.1928 15.3409 87.4189C15.8137 87.8712 16.2865 88.3645 16.6976 88.8579C16.9032 89.1045 17.1087 89.3512 17.2937 89.5979C17.0881 89.3101 17.5198 89.8857 17.2937 89.5979C17.3348 89.6596 17.376 89.7007 17.4171 89.7624C17.5404 89.9268 17.6637 90.0913 17.7665 90.2557C18.157 90.8107 18.527 91.3657 18.8765 91.9413C19.6371 93.1953 20.336 94.5109 20.9733 95.8265C21.3227 96.5459 21.6722 97.286 22.0011 98.0054C22.0833 98.1699 22.145 98.3343 22.2272 98.4988C22.2683 98.581 22.3095 98.6838 22.3506 98.766C22.4534 99.0333 22.3506 98.7866 22.33 98.7249C22.515 99.136 22.6589 99.5472 22.8233 99.9583C24.1595 103.33 25.1873 106.804 25.9068 110.36C26.0507 111.12 26.8935 111.552 27.5924 111.47C28.4147 111.367 28.8464 110.73 28.9286 109.949C29.6481 103.761 28.0857 97.6149 28.4558 91.4069C28.4763 90.9135 28.538 90.4202 28.5791 89.9474C28.5997 89.824 28.6203 89.7007 28.6203 89.5773C28.6408 89.3718 28.5586 90.009 28.5997 89.7007C28.5997 89.639 28.6203 89.5979 28.6203 89.5362C28.6614 89.269 28.7024 89.0018 28.7435 88.7345C28.9285 87.6862 29.1752 86.6378 29.463 85.6305C29.6274 85.0961 29.7919 84.5616 29.9769 84.0271C30.0591 83.7805 30.1414 83.5544 30.2442 83.3282C30.2853 83.2049 30.3469 83.0816 30.388 82.9582C30.4908 82.7321 30.347 83.061 30.3264 83.0815C30.3675 82.9993 30.3881 82.9171 30.4292 82.8349C30.8609 81.8687 31.3542 80.9231 31.9503 80.0392C32.0942 79.8131 32.2587 79.587 32.4232 79.3609C32.4437 79.3197 32.6287 79.0936 32.4437 79.3198C32.2792 79.5459 32.4643 79.2992 32.5054 79.2581C32.5876 79.1553 32.6698 79.0525 32.7726 78.9497C33.122 78.5386 33.5126 78.148 33.9238 77.7986C34.0265 77.6958 34.1499 77.6136 34.2527 77.5313C34.3966 77.408 33.9649 77.7369 34.1293 77.6341C34.191 77.593 34.2526 77.5519 34.3143 77.4902C34.5404 77.3463 34.7461 77.2024 34.9927 77.0586C35.2188 76.9352 35.4449 76.8119 35.671 76.7091C35.7122 76.6885 35.9589 76.5858 35.6916 76.6885C35.445 76.7913 35.6505 76.7091 35.7122 76.6885C35.8561 76.6269 35.9999 76.5858 36.1438 76.5446C36.7605 76.3391 37.3155 75.7429 37.2744 75.0646C37.2333 74.3657 36.8222 73.8106 36.1438 73.5845C33.5126 72.7006 30.7581 72.3306 28.1064 71.4878C27.798 71.385 27.4897 71.2822 27.1813 71.1589C27.1197 71.1383 27.0579 71.1178 26.9962 71.0972C26.9551 71.0767 26.6879 70.9328 26.914 71.0561C27.1402 71.1794 26.8729 71.0355 26.8318 71.015C26.7496 70.9739 26.6469 70.9328 26.5646 70.8917C25.9685 70.6244 25.4134 70.2955 24.879 69.9255C24.7967 69.8638 24.7145 69.8022 24.6323 69.7611C24.4473 69.6377 24.6735 69.8227 24.7146 69.8227C24.6529 69.8433 24.3856 69.5555 24.3239 69.4938C24.0567 69.2471 23.7895 69.0005 23.5428 68.7332C23.3372 68.5071 23.1317 68.2604 22.9261 68.0138C22.8233 67.8904 22.7206 67.7671 22.6178 67.6437C22.885 67.9521 22.7206 67.7671 22.6589 67.6848C22.5973 67.6026 22.5356 67.4999 22.4534 67.4176C21.7133 66.4104 21.0966 65.3414 20.5416 64.2314C20.3977 63.9436 20.2744 63.6764 20.151 63.3886C20.0893 63.2653 20.0277 63.1419 19.9866 62.998C19.9455 62.9363 19.9249 62.8541 19.8838 62.7925C19.7605 62.5047 20.0072 63.0802 19.8838 62.813C19.6371 62.2169 19.4109 61.6002 19.1848 61.004C18.2598 58.4551 17.5403 55.8239 16.7386 53.2338C15.6286 49.7392 14.3336 46.3063 12.648 43.0584C12.2779 42.3389 11.2091 42.0717 10.5307 42.5033C9.79067 42.9761 9.58506 43.8395 9.97563 44.6207C10.3868 45.4018 10.7774 46.2035 11.1474 47.0052C11.3118 47.3752 11.4968 47.7452 11.6407 48.1152C11.6202 48.0741 11.5174 47.8069 11.6201 48.0741C11.6613 48.1564 11.7024 48.2591 11.7435 48.3413C11.8257 48.5469 11.9079 48.7525 11.9901 48.9375C12.5657 50.3764 13.0796 51.8359 13.5524 53.316C14.4158 55.9678 15.1558 58.6606 16.0603 61.2918C16.9237 63.7997 17.9721 66.287 19.4727 68.4866C20.2744 69.6583 21.1788 70.8505 22.2889 71.755C23.4811 72.7623 24.7968 73.4817 26.2563 74.0368C29.1753 75.1674 32.341 75.4963 35.3011 76.483C35.3011 75.4963 35.3011 74.5096 35.3011 73.5023C30.8198 74.9412 28.2502 79.402 26.8318 83.5955C26.0918 85.7539 25.6396 88.0151 25.4135 90.2763C25.1257 93.1953 25.3312 96.1554 25.5779 99.0744C25.8657 102.672 26.2151 106.269 25.804 109.866C26.8113 109.723 27.8186 109.599 28.8258 109.455C28.168 106.228 27.2429 103.042 26.0918 99.9583C24.9201 96.8543 23.5428 93.7914 21.8777 90.9135C20.4593 88.4879 18.7532 86.1239 16.5742 84.3355C15.382 83.3693 14.1485 82.5882 12.7096 82.0332C11.4351 81.5193 10.099 81.3754 8.74225 81.252C7.75555 81.1698 6.78944 81.0465 5.80274 80.9848C4.34324 80.9026 2.90425 80.9642 1.44476 81.0465C1.71199 82.0126 1.95862 82.9582 2.22586 83.9244C4.6515 82.4237 7.0155 80.7792 9.1328 78.8264C11.2295 76.8735 13.1825 74.6329 14.2308 71.94C15.2381 69.3499 15.4025 66.4515 15.3409 63.6764C15.2792 60.5312 15.0325 57.3861 14.6624 54.2821C14.2308 50.6231 13.6141 46.9641 12.8124 43.3667C12.6274 42.5856 11.6818 42.0511 10.9212 42.2978C10.2018 42.6472 9.74949 43.4284 9.95506 44.2712Z" fill="white"/>
<path d="M90.8237 85.6715C91.1115 86.8021 91.3377 87.9327 91.5021 89.1045C91.4816 88.9606 91.461 88.8372 91.4404 88.6933C91.7487 90.9751 91.7899 93.3185 91.4816 95.6002C91.5021 95.4564 91.5226 95.333 91.5432 95.1891C91.2965 97.0392 90.8237 98.8481 90.1042 100.554C90.1659 100.431 90.2071 100.308 90.2688 100.184C89.9193 101.007 89.5287 101.808 89.0559 102.569C88.8298 102.959 88.5626 103.35 88.2953 103.72C88.172 103.884 88.0487 104.049 87.9253 104.213C88.2543 103.782 87.987 104.131 87.9048 104.234C87.8225 104.337 87.7403 104.439 87.6581 104.522C87.0825 105.221 86.4247 105.858 85.7464 106.454C85.5819 106.598 85.3969 106.742 85.2325 106.886C85.1297 106.968 84.7802 107.235 85.2119 106.906C85.1091 106.968 85.0269 107.05 84.9241 107.132C84.5335 107.42 84.1224 107.687 83.7113 107.955C82.9302 108.427 82.149 108.839 81.3062 109.188C81.4295 109.126 81.5528 109.085 81.6761 109.024C81.08 109.27 80.4839 109.517 79.8878 109.784C79.4767 109.969 79.0861 110.134 78.7778 110.442C78.0789 111.1 78.2021 112.23 78.9216 112.785C79.2916 113.073 79.785 113.155 80.2167 113.279C80.9568 113.505 81.6967 113.772 82.4162 114.08C82.2929 114.019 82.1696 113.978 82.0462 113.916C83.9991 114.759 85.8902 115.807 87.5759 117.082C87.617 117.123 87.6581 117.143 87.6992 117.184C87.3498 116.917 87.4936 117.041 87.5759 117.082C87.6786 117.164 87.7608 117.226 87.8636 117.308C88.0486 117.452 88.2337 117.616 88.3981 117.76C88.7065 118.048 89.0148 118.336 89.3026 118.664C89.4465 118.808 89.5698 118.973 89.7137 119.137C89.7754 119.219 89.837 119.302 89.8987 119.384C89.9603 119.466 90.0632 119.61 89.7754 119.24C89.8165 119.302 89.8576 119.343 89.8987 119.404C90.1454 119.733 90.3921 120.083 90.5977 120.453C91.1321 121.296 91.5638 122.2 91.9749 123.125C91.9132 123.002 91.8721 122.878 91.8105 122.755C93.2905 126.291 93.9688 130.094 94.6266 133.856C94.7911 134.863 94.9761 135.87 95.1611 136.877C95.2228 137.227 95.5722 137.638 95.86 137.802C96.1684 137.967 96.4973 138.029 96.8468 137.987C97.6074 137.885 98.1624 137.247 98.1829 136.466C98.2446 134.76 98.3063 133.054 98.3679 131.327C98.4296 129.683 98.4296 128.018 98.6557 126.373C98.6351 126.517 98.6146 126.64 98.5941 126.784C98.7996 125.366 99.1079 123.947 99.4779 122.57C99.663 121.892 99.8685 121.213 100.074 120.535C100.259 119.98 100.424 119.404 100.65 118.849C100.588 118.973 100.547 119.096 100.485 119.219C100.773 118.562 101.143 117.945 101.575 117.369C101.636 117.287 101.698 117.205 101.76 117.102C101.904 116.917 101.492 117.431 101.719 117.143C101.862 116.958 102.006 116.794 102.15 116.609C102.418 116.28 102.705 115.972 102.993 115.663C103.61 115.026 104.268 114.409 104.946 113.813C105.11 113.669 105.275 113.546 105.439 113.402C105.522 113.34 105.604 113.279 105.686 113.196C105.727 113.155 105.768 113.114 105.83 113.094C105.768 113.135 105.522 113.34 105.707 113.176C106.035 112.929 106.385 112.683 106.714 112.436C107.392 111.984 108.091 111.552 108.852 111.244C108.728 111.305 108.605 111.346 108.482 111.408C108.543 111.388 108.605 111.367 108.667 111.326C109.037 111.182 109.386 110.976 109.592 110.627C109.756 110.319 109.818 109.99 109.777 109.64C109.674 108.88 109.037 108.304 108.256 108.304C107.906 108.304 107.557 108.284 107.228 108.242C107.372 108.263 107.495 108.284 107.639 108.304C106.96 108.201 106.282 108.016 105.645 107.749C105.768 107.811 105.892 107.852 106.015 107.913C105.624 107.749 105.254 107.564 104.905 107.338C104.72 107.235 104.555 107.112 104.37 107.009C104.288 106.947 104.185 106.886 104.103 106.824C104.062 106.803 104.021 106.762 103.98 106.742C103.959 106.721 103.939 106.701 103.918 106.701C103.774 106.577 104.124 106.865 104.103 106.845C103.404 106.269 102.746 105.652 102.13 104.974C101.986 104.789 101.821 104.624 101.678 104.439C101.616 104.357 101.534 104.254 101.472 104.172C101.308 103.967 101.636 104.378 101.575 104.296C101.534 104.234 101.492 104.193 101.451 104.131C101.143 103.741 100.876 103.329 100.588 102.918C100.012 102.055 99.4986 101.15 99.0258 100.225C98.4707 99.1565 97.9568 98.0465 97.484 96.9364C97.5457 97.0597 97.5868 97.1831 97.6485 97.3064C96.2712 94.038 95.2022 90.6256 94.3183 87.1722C94.1127 86.3705 93.9278 85.5893 93.7428 84.7876C93.5577 84.0065 92.6121 83.472 91.8515 83.7187C91.0704 84.0476 90.6181 84.8287 90.8237 85.6715C91.2554 87.5422 91.7282 89.4128 92.2832 91.2629C92.9205 93.4213 93.6606 95.5797 94.5034 97.6764C95.4079 99.876 96.4151 102.055 97.6896 104.069C98.8202 105.878 100.177 107.646 101.842 108.982C102.644 109.62 103.486 110.216 104.432 110.627C105.48 111.079 106.508 111.367 107.659 111.47C107.886 111.49 108.112 111.49 108.317 111.49C108.173 110.483 108.05 109.476 107.906 108.469C106.22 109.126 104.761 110.154 103.363 111.285C101.965 112.415 100.65 113.69 99.5397 115.108C98.9847 115.807 98.4707 116.506 98.0596 117.308C97.5868 118.253 97.2785 119.281 96.9701 120.288C96.2301 122.735 95.6339 125.222 95.4489 127.771C95.3461 129.21 95.3256 130.669 95.2845 132.108C95.2434 133.588 95.1817 135.048 95.1405 136.528C96.1478 136.384 97.1551 136.261 98.1624 136.117C97.4223 132.026 96.8673 127.874 95.5517 123.927C94.8733 121.933 94.0305 119.939 92.7971 118.212C92.1805 117.328 91.4816 116.506 90.7005 115.766C89.796 114.944 88.7887 114.204 87.7608 113.546C86.6302 112.806 85.438 112.148 84.2046 111.593C83.5057 111.264 82.7862 110.976 82.0462 110.709C81.4501 110.504 80.8539 110.339 80.2578 110.154C80.3811 110.216 80.5045 110.257 80.6279 110.319C80.8129 110.504 80.9772 110.668 81.1622 110.853C81.2239 110.976 81.2651 111.1 81.3267 111.223C81.3473 111.367 81.3678 111.49 81.3884 111.634C81.3678 111.778 81.3473 111.901 81.3267 112.045C81.2651 112.169 81.2239 112.292 81.1622 112.415C81.0389 112.6 80.8745 112.826 80.6895 112.909C80.7306 112.888 80.7511 112.868 80.7923 112.847C80.895 112.785 80.9978 112.744 81.1006 112.683C81.3884 112.539 81.6967 112.415 82.0051 112.292C81.8817 112.354 81.7584 112.395 81.6351 112.456C82.4779 112.107 83.3412 111.758 84.1635 111.326C85.1091 110.832 85.993 110.257 86.8358 109.62C88.6242 108.242 90.1659 106.618 91.3788 104.727C93.7222 101.13 94.75 96.772 94.7706 92.5168C94.7706 89.9678 94.4211 87.3983 93.8044 84.9315C93.5988 84.1504 92.6944 83.5954 91.9133 83.8626C91.091 84.0476 90.5976 84.8287 90.8237 85.6715Z" fill="white"/>
<path d="M111.648 31.1358C111.812 31.8964 111.956 32.657 112.08 33.4175C112.141 33.7876 112.203 34.1781 112.265 34.5687C112.285 34.692 112.388 35.2676 112.306 34.8154C112.347 35.0415 112.367 35.2676 112.388 35.4732C112.573 37.0355 112.717 38.6183 112.799 40.2011C112.963 43.3874 112.943 46.5942 112.717 49.7598C112.655 50.541 112.593 51.3221 112.532 52.1238C112.491 52.4733 112.47 52.8433 112.429 53.1927C112.408 53.3572 112.388 53.5216 112.367 53.7066C112.367 53.7889 112.347 53.8711 112.347 53.9328C112.326 54.0561 112.347 53.9944 112.367 53.7478C112.367 53.8094 112.347 53.8711 112.347 53.9328C112.162 55.2484 111.874 56.5434 111.525 57.8179C111.34 58.4552 111.134 59.0924 110.908 59.7091C110.784 60.0175 110.682 60.3258 110.558 60.6341C110.538 60.7164 110.497 60.778 110.476 60.8603C110.599 60.4697 110.538 60.6958 110.497 60.7986C110.414 60.963 110.353 61.148 110.271 61.3125C109.716 62.5253 109.078 63.6765 108.318 64.7865C108.112 65.0949 107.886 65.4032 107.66 65.691C107.598 65.7732 107.475 65.876 107.722 65.6088C107.66 65.691 107.578 65.7732 107.516 65.8555C107.393 65.9993 107.29 66.1432 107.167 66.2871C106.694 66.8422 106.2 67.3561 105.666 67.87C105.399 68.1166 105.131 68.3633 104.844 68.61C104.7 68.7333 104.535 68.8361 104.412 68.9595C104.679 68.6922 104.577 68.8361 104.474 68.9183C104.392 68.98 104.309 69.0417 104.206 69.1033C103.61 69.535 102.973 69.9462 102.315 70.2956C101.74 70.604 101.411 71.4057 101.616 72.0429C101.699 72.2896 101.822 72.5362 102.007 72.7212C102.233 72.9679 102.747 73.2146 103.096 73.1735C104.474 73.0091 105.851 72.9268 107.228 72.9679C107.907 72.9885 108.564 73.0296 109.243 73.0913C109.407 73.1118 109.592 73.1324 109.757 73.153C109.88 73.1735 110.497 73.2557 109.962 73.1735C110.312 73.2352 110.661 73.2763 111.011 73.3379C112.347 73.5641 113.683 73.893 114.978 74.3041C115.636 74.5097 116.294 74.7358 116.931 75.003C117.075 75.0647 117.198 75.1058 117.342 75.1675C117.424 75.2086 117.506 75.2291 117.589 75.2702C117.157 75.1058 117.445 75.2086 117.547 75.2497C117.876 75.3936 118.185 75.5375 118.514 75.6814C119.768 76.2775 120.98 76.9353 122.132 77.6753C122.707 78.0454 123.262 78.4154 123.797 78.8265C123.941 78.9293 124.084 79.0321 124.228 79.1348C124.29 79.1965 124.372 79.2376 124.434 79.2993C124.105 79.0526 124.249 79.1554 124.331 79.2171C124.639 79.4637 124.927 79.6899 125.215 79.9365C126.243 80.7999 127.23 81.7455 128.134 82.7322C128.607 83.2461 129.059 83.7806 129.511 84.3356C129.594 84.4589 129.696 84.5617 129.778 84.685C129.45 84.2945 129.84 84.7673 129.902 84.8701C130.107 85.1578 130.313 85.4456 130.519 85.7334C131.382 86.9874 132.163 88.303 132.821 89.6597C132.985 90.0091 133.15 90.3586 133.294 90.6875C133.417 90.9753 133.15 90.338 133.273 90.6464C133.314 90.7492 133.355 90.8725 133.396 90.9753C133.458 91.1397 133.52 91.3042 133.581 91.4686C133.869 92.2087 134.116 92.9692 134.321 93.7298C134.548 94.511 135.432 95.066 136.213 94.7988C136.583 94.6754 136.953 94.4493 137.138 94.0998C137.343 93.7093 137.364 93.3393 137.302 92.9076C137.302 92.887 137.24 92.4964 137.282 92.7431C137.323 92.9898 137.261 92.6198 137.261 92.5992C137.241 92.4553 137.22 92.3115 137.199 92.1676C137.158 91.8387 137.117 91.5097 137.097 91.1808C137.055 90.6669 137.014 90.153 136.994 89.6391C136.973 88.8374 136.994 88.0152 136.973 87.2135C136.973 86.2062 136.912 85.2195 136.809 84.2122C136.727 83.4517 136.624 82.6911 136.521 81.9305C136.459 81.4783 136.398 81.026 136.336 80.5532C136.315 80.471 136.315 80.3888 136.295 80.3065C136.233 79.916 136.336 80.5532 136.295 80.3065C136.274 80.0804 136.233 79.8749 136.213 79.6488C136.028 78.1893 135.863 76.7092 135.822 75.2291C135.802 74.4686 135.802 73.7285 135.863 72.9679C135.884 72.6185 135.904 72.2485 135.966 71.899C135.884 72.3307 136.007 71.6935 136.007 71.6112C136.048 71.4057 136.069 71.2207 136.11 71.0151C136.233 70.3778 136.418 69.7612 136.624 69.165C136.706 68.8978 136.809 68.6306 136.912 68.3633C136.953 68.24 136.994 68.1166 137.056 68.0139C137.076 67.9316 137.117 67.87 137.138 67.7877C137.282 67.4588 137.076 67.9522 137.138 67.8083C137.631 66.7188 138.186 65.6704 138.844 64.6837C139.029 64.4165 139.296 64.1287 139.461 63.8409C139.44 63.8615 139.234 64.1287 139.399 63.9232C139.461 63.8409 139.522 63.7793 139.584 63.697C139.687 63.5737 139.789 63.4504 139.892 63.327C140.324 62.8337 140.776 62.3609 141.27 61.9086C141.516 61.6825 141.783 61.4564 142.051 61.2303C142.256 61.0658 141.989 61.2919 141.968 61.2919C142.051 61.2508 142.112 61.1686 142.195 61.1275C142.338 61.0247 142.482 60.9219 142.606 60.8192C143.161 60.4286 143.736 60.0997 144.353 59.7913C144.929 59.5035 145.257 58.6607 145.052 58.044C144.826 57.3657 144.271 56.9546 143.572 56.9134C142.852 56.8723 142.133 56.8107 141.413 56.7284C141.249 56.7079 141.085 56.6873 140.92 56.6668C140.838 56.6668 140.756 56.6257 140.673 56.6257C141.084 56.6051 140.817 56.6462 140.694 56.6257C140.324 56.564 139.954 56.5229 139.604 56.4612C138.207 56.2145 136.829 55.9062 135.493 55.5156C134.815 55.31 134.157 55.1045 133.499 54.8578C133.191 54.7345 132.883 54.6317 132.554 54.5083C132.512 54.4878 132.081 54.3233 132.081 54.3233C132.143 54.3439 132.204 54.385 132.266 54.4056C132.204 54.385 132.143 54.3439 132.081 54.3233C131.999 54.2822 131.896 54.2411 131.814 54.2C130.519 53.6244 129.285 52.9666 128.093 52.206C127.497 51.8155 126.901 51.4249 126.346 50.9932C126.284 50.9521 126.243 50.911 126.181 50.8699C126.243 50.9316 126.531 51.1166 126.181 50.8699C126.058 50.7671 125.914 50.6643 125.791 50.5615C125.503 50.3354 125.236 50.0887 124.968 49.8421C124.454 49.3693 123.941 48.8759 123.468 48.362C122.974 47.8275 122.543 47.252 122.07 46.7175C122.358 47.0464 122.008 46.6353 121.947 46.5325C121.844 46.3886 121.741 46.2653 121.638 46.1214C121.412 45.813 121.207 45.5047 121.001 45.1963C120.59 44.5796 120.22 43.9424 119.85 43.3051C119.13 42.0306 118.493 40.7151 117.897 39.3583C117.876 39.2967 117.835 39.235 117.815 39.1733C117.794 39.1117 117.753 39.05 117.733 38.9883C117.815 39.1939 117.835 39.2144 117.774 39.0705C117.691 38.8855 117.609 38.68 117.527 38.495C117.383 38.1249 117.239 37.7549 117.095 37.3849C116.808 36.6243 116.52 35.8432 116.252 35.0826C115.697 33.4998 115.184 31.9169 114.67 30.3341C114.423 29.5735 113.58 28.9979 112.778 29.2652C111.956 29.4913 111.381 30.3135 111.648 31.1358C113.498 36.9121 115.43 42.8735 119.028 47.8275C120.857 50.356 123.057 52.5349 125.647 54.3233C128.093 56.009 130.827 57.2834 133.643 58.2085C136.85 59.2569 140.201 59.8324 143.572 60.0175C143.305 59.0513 143.058 58.1057 142.791 57.1396C138.124 59.4624 134.877 64.0876 133.458 69.0417C132.595 72.0635 132.636 75.2086 132.985 78.292C133.088 79.1554 133.191 79.9982 133.314 80.8616C133.335 81.0671 133.376 81.2521 133.396 81.4577C133.417 81.5399 133.417 81.6222 133.438 81.7044C133.499 82.095 133.396 81.4577 133.438 81.7249C133.499 82.1155 133.54 82.5266 133.602 82.9172C133.746 84.13 133.89 85.3428 133.91 86.5557C133.931 87.4807 133.91 88.4057 133.931 89.3308C133.972 90.7903 134.136 92.2498 134.342 93.7093C135.329 93.442 136.315 93.1543 137.323 92.887C135.74 87.2957 132.451 82.2389 128.134 78.3948C123.817 74.5302 118.473 71.714 112.799 70.5423C109.633 69.8845 106.344 69.6789 103.138 70.0901C103.405 71.0562 103.651 72.0018 103.919 72.9679C108.976 70.1928 112.388 65.1976 114.176 59.8119C115.101 57.0162 115.512 54.1178 115.739 51.1782C116.006 47.9303 116.088 44.6824 115.965 41.4345C115.821 37.7138 115.43 33.9931 114.67 30.3547C114.505 29.5735 113.539 29.0391 112.778 29.2857C111.895 29.5119 111.483 30.293 111.648 31.1358Z" fill="white"/>
</svg>
