<svg width="60" height="30" viewBox="0 0 60 30" fill="none" xmlns="http://www.w3.org/2000/svg">
<path d="M16.3636 19.0909V10.6636C14.4 9.76364 12.5727 8.67273 10.9091 7.39091V19.0909H16.3636ZM10.9091 30H5.45455V24.5455H0V19.0909H5.45455V0H10.9091V3.9C15.8182 8.18182 22.5545 10.9091 30 10.9091C37.4455 10.9091 44.1818 8.18182 49.0909 3.9V0H54.5455V19.0909H60V24.5455H54.5455V30H49.0909V24.5455H10.9091V30ZM43.6364 10.6636V19.0909H49.0909V7.39091C47.4273 8.67273 45.6 9.76364 43.6364 10.6636ZM40.9091 19.0909V11.7818C39.1636 12.4091 37.3364 12.8727 35.4545 13.2V19.0909H40.9091ZM32.7273 19.0909V13.5273L30 13.6364L27.2727 13.5273V19.0909H32.7273ZM24.5455 19.0909V13.2C22.6636 12.8727 20.8364 12.4091 19.0909 11.7818V19.0909H24.5455Z" fill="url(#paint0_linear_51_255)"/>
<defs>
<linearGradient id="paint0_linear_51_255" x1="0" y1="15" x2="60" y2="15" gradientUnits="userSpaceOnUse">
<stop stop-color="#833AB4"/>
<stop offset="0.5" stop-color="#FD1D1D"/>
<stop offset="1" stop-color="#FCB045"/>
</linearGradient>
</defs>
</svg>
