<svg width="40" height="45" viewBox="0 0 40 45" fill="none" xmlns="http://www.w3.org/2000/svg">
<path d="M38.5853 28.9374L28.9362 24.3347L24.856 22.3882C26.6379 21.2656 28.0853 19.5329 29.0323 17.446C29.8222 15.7062 30.2309 13.8175 30.2307 11.9067C30.2307 10.781 30.0521 9.71194 29.8031 8.68049C28.5893 3.68218 24.6859 0 20 0C15.4028 0 11.5586 3.55094 10.2696 8.40691C9.97196 9.52093 9.7674 10.6793 9.7674 11.9067C9.7674 14.038 10.2653 16.0251 11.1112 17.7535C12.0891 19.7585 13.5389 21.4116 15.3036 22.4745L11.3959 24.294L1.43381 28.9337C0.568717 29.3392 0 30.3152 0 31.4052V42.3513C0 43.8184 1.02221 45.0075 2.28411 45.0075H17.08V36.6265C17.0821 36.5401 17.1074 36.4558 17.1533 36.3825L17.1472 36.3788L19.5705 32.1815L19.5767 32.1852C19.663 32.0373 19.8164 31.9326 20 31.9326C20.1836 31.9326 20.337 32.0367 20.4233 32.1852L20.4258 32.1834L20.4479 32.2222C20.451 32.2283 20.4553 32.2333 20.4578 32.2394L22.8491 36.3807L22.8461 36.3825C22.892 36.456 22.9173 36.5405 22.9194 36.6271V45.0082H37.7153C38.9772 45.0082 40 43.819 40 42.3519V31.4052C40.0018 30.3189 39.4424 29.3521 38.5853 28.9374ZM22.8479 26.1308L22.8541 26.1345L20.4301 30.3318L20.4239 30.3281C20.3819 30.4037 20.3205 30.4669 20.2462 30.5111C20.1719 30.5554 20.0871 30.5792 20.0006 30.5801C19.9141 30.5792 19.8294 30.5554 19.755 30.5111C19.6807 30.4669 19.6194 30.4037 19.5773 30.3281L19.5742 30.33L19.5496 30.2874C19.5477 30.2831 19.544 30.2794 19.5422 30.2751L17.1509 26.1327L17.1533 26.1308C17.1074 26.0573 17.082 25.9728 17.08 25.8862C17.08 25.612 17.3024 25.3896 17.5766 25.3896H22.4234C22.6976 25.3896 22.92 25.612 22.92 25.8862C22.919 25.9728 22.894 26.0575 22.8479 26.1308Z" fill="url(#paint0_linear_51_292)"/>
<defs>
<linearGradient id="paint0_linear_51_292" x1="0" y1="22.5041" x2="40" y2="22.5041" gradientUnits="userSpaceOnUse">
<stop stop-color="#833AB4"/>
<stop offset="0.5" stop-color="#FD1D1D"/>
<stop offset="1" stop-color="#FCB045"/>
</linearGradient>
</defs>
</svg>
