<svg width="51" height="53" viewBox="0 0 51 53" fill="none" xmlns="http://www.w3.org/2000/svg">
<path d="M47.9989 23.0225C48.8751 20.8777 49.1679 18.5391 48.8476 16.2444C48.5273 13.9497 47.6052 11.7807 46.1751 9.95775C44.745 8.13483 42.8578 6.72296 40.7054 5.86561C38.5529 5.00826 36.2118 4.73598 33.92 5.07645C32.4997 3.24696 30.6206 1.82587 28.4735 0.957482C26.3264 0.0890937 23.9877 -0.19567 21.695 0.132106C19.4022 0.459882 17.237 1.38852 15.4192 2.82374C13.6014 4.25896 12.1958 6.14963 11.345 8.30379C9.04938 8.61802 6.87786 9.53437 5.0511 10.9597C3.22434 12.385 1.80746 14.2685 0.94443 16.4188C0.0814038 18.5692 -0.197003 20.9096 0.137499 23.2023C0.472002 25.4951 1.40749 27.6584 2.84891 29.4725C2.14551 31.1963 1.81688 33.0499 1.88484 34.9104C1.95279 36.7709 2.41578 38.5957 3.24304 40.2635C4.07031 41.9313 5.24293 43.4041 6.68304 44.584C8.12316 45.7639 9.7978 46.6239 11.5958 47.1069C12.7102 47.412 13.8599 47.5696 15.0153 47.5757C15.6562 47.575 16.2962 47.5272 16.9302 47.4327C18.3507 49.2615 20.2298 50.682 22.3768 51.5498C24.5238 52.4177 26.8622 52.702 29.1545 52.374C31.4469 52.046 33.6117 51.1174 35.4292 49.6823C37.2467 48.2472 38.6521 46.3568 39.5028 44.203C41.7984 43.8888 43.97 42.9724 45.7967 41.5471C47.6235 40.1218 49.0404 38.2383 49.9034 36.088C50.7664 33.9376 51.0448 31.5972 50.7103 29.3045C50.3758 27.0117 49.4403 24.8484 47.9989 23.0343V23.0225ZM29.1739 28.4132L25.4239 30.5788L21.6739 28.4132V24.0819L25.4239 21.9163L29.1739 24.0819V28.4132ZM38.2794 9.00457C40.6421 9.63617 42.6644 11.166 43.9149 13.2678C45.1655 15.3695 45.5452 17.8768 44.9731 20.2546C44.7506 20.1055 44.5232 19.964 44.2911 19.8304L33.8614 13.7975C33.5764 13.633 33.253 13.5463 32.9239 13.5463C32.5948 13.5463 32.2714 13.633 31.9864 13.7975L21.6739 19.753V15.4218L31.1661 9.94207C32.231 9.32353 33.4079 8.92221 34.6289 8.76129C35.8498 8.60038 37.0906 8.68306 38.2794 9.00457ZM4.99812 16.6218C6.1933 14.5379 8.14726 12.9962 10.452 12.3186C10.4344 12.5863 10.425 12.8543 10.4239 13.1225V25.1647C10.4238 25.4939 10.5104 25.8174 10.675 26.1025C10.8396 26.3876 11.0763 26.6243 11.3614 26.7889L21.6739 32.7421L17.9239 34.9194L8.43172 29.428C6.27853 28.1848 4.70739 26.1371 4.06391 23.7355C3.42043 21.3339 3.75732 18.775 5.00047 16.6218H4.99812ZM27.2989 48.7475C24.8988 48.754 22.5885 47.8347 20.8489 46.1811C21.0833 46.0616 21.3177 45.935 21.552 45.7991L31.9864 39.778C32.2712 39.6136 32.5077 39.3772 32.6722 39.0925C32.8368 38.8079 32.9236 38.4849 32.9239 38.1561V26.2475L36.6739 28.4132V39.3725C36.6739 41.8589 35.6862 44.2435 33.928 46.0017C32.1699 47.7598 29.7853 48.7475 27.2989 48.7475Z" fill="url(#paint0_linear_51_320)"/>
<defs>
<linearGradient id="paint0_linear_51_320" x1="0" y1="26.2532" x2="50.8478" y2="26.2532" gradientUnits="userSpaceOnUse">
<stop stop-color="#833AB4"/>
<stop offset="0.5" stop-color="#FD1D1D"/>
<stop offset="1" stop-color="#FCB045"/>
</linearGradient>
</defs>
</svg>
