<svg width="50" height="51" viewBox="0 0 50 51" fill="none" xmlns="http://www.w3.org/2000/svg">
<path fill-rule="evenodd" clip-rule="evenodd" d="M26.8879 33.4519C28.9664 32.2472 30.7831 30.639 32.2311 28.7219C31.7624 27.9984 31.4306 27.1949 31.2521 26.3515L31.184 26.036C30.9869 25.1358 30.5262 24.3148 29.8607 23.6774C29.1953 23.04 28.3551 22.6152 27.4473 22.4571C20.017 21.1661 20.017 10.5012 27.4473 9.2066C28.3243 9.05429 29.139 8.65273 29.794 8.0499C30.4489 7.44707 30.9165 6.66844 31.1409 5.80702C29.3937 3.90306 27.2556 2.39928 24.873 1.39868C22.4904 0.398075 19.9197 -0.0756946 17.3369 0.00982118C14.7542 0.0953369 12.2204 0.738118 9.90925 1.89413C7.59808 3.05014 5.56409 4.69207 3.94662 6.70744C2.32915 8.7228 1.16643 11.064 0.538096 13.5706C-0.0902344 16.0772 -0.169323 18.69 0.306248 21.23C0.781819 23.7701 1.80081 26.1773 3.29342 28.2868C4.78603 30.3963 6.71699 32.1582 8.95401 33.4519V37.644C8.95401 38.5951 9.33183 39.5072 10.0043 40.1797C10.6769 40.8523 11.589 41.2301 12.5401 41.2301H23.2982C24.2493 41.2301 25.1614 40.8523 25.834 40.1797C26.5065 39.5072 26.8843 38.5951 26.8843 37.644L26.8879 33.4519ZM8.9576 47.5057C8.9576 46.7924 9.24096 46.1083 9.74535 45.6039C10.2497 45.0995 10.9338 44.8161 11.6471 44.8161H24.1983C24.9116 44.8161 25.5957 45.0995 26.1001 45.6039C26.6045 46.1083 26.8879 46.7924 26.8879 47.5057C26.8879 48.219 26.6045 48.9031 26.1001 49.4075C25.5957 49.9119 24.9116 50.1952 24.1983 50.1952H11.6471C10.9338 50.1952 10.2497 49.9119 9.74535 49.4075C9.24096 48.9031 8.9576 48.219 8.9576 47.5057ZM35.0641 6.1477C35.7203 3.14976 39.9877 3.13183 40.6691 6.1226L40.7014 6.26604L40.7659 6.54575C41.1508 8.18485 42.009 9.67465 43.2338 10.8299C44.4586 11.9852 45.996 12.7551 47.6547 13.0437C50.7818 13.5888 50.7818 18.0785 47.6547 18.6236C45.9865 18.9139 44.4413 19.6907 43.2132 20.8564C41.985 22.022 41.1286 23.5246 40.7516 25.1753L40.6691 25.5411C39.9877 28.5354 35.7167 28.5175 35.0569 25.516L34.9888 25.204C34.6272 23.5477 33.7807 22.0366 32.557 20.8634C31.3333 19.6902 29.7879 18.9079 28.1179 18.6164C24.9944 18.0749 24.9944 13.5923 28.1179 13.0473C29.7821 12.7579 31.3229 11.9812 32.5454 10.8155C33.7679 9.64985 34.617 8.14765 34.9852 6.49913L35.039 6.26604L35.0641 6.1477Z" fill="url(#paint0_linear_51_297)"/>
<defs>
<linearGradient id="paint0_linear_51_297" x1="0" y1="25.0976" x2="50" y2="25.0976" gradientUnits="userSpaceOnUse">
<stop stop-color="#833AB4"/>
<stop offset="0.5" stop-color="#FD1D1D"/>
<stop offset="1" stop-color="#FCB045"/>
</linearGradient>
</defs>
</svg>
